<svg xmlns="http://www.w3.org/2000/svg" xmlns:svgjs="http://svgjs.com/svgjs" xmlns:xlink="http://www.w3.org/1999/xlink" style="enable-background:new 0 0 512 512" width="512" height="512" x="0" y="0" version="1.1" viewBox="0 0 512 512" xml:space="preserve"><g><g xmlns="http://www.w3.org/2000/svg"><g><path fill="#6c757d" d="M452,40h-24V0h-40v40H124V0H84v40H60C26.916,40,0,66.916,0,100v352c0,33.084,26.916,60,60,60h392 c33.084,0,60-26.916,60-60V100C512,66.916,485.084,40,452,40z M472,452c0,11.028-8.972,20-20,20H60c-11.028,0-20-8.972-20-20V188 h432V452z M472,148H40v-48c0-11.028,8.972-20,20-20h24v40h40V80h264v40h40V80h24c11.028,0,20,8.972,20,20V148z" data-original="#000000"/></g></g><g xmlns="http://www.w3.org/2000/svg"><g><rect width="40" height="40" x="76" y="230" fill="#6c757d" data-original="#000000"/></g></g><g xmlns="http://www.w3.org/2000/svg"><g><rect width="40" height="40" x="156" y="230" fill="#6c757d" data-original="#000000"/></g></g><g xmlns="http://www.w3.org/2000/svg"><g><rect width="40" height="40" x="236" y="230" fill="#6c757d" data-original="#000000"/></g></g><g xmlns="http://www.w3.org/2000/svg"><g><rect width="40" height="40" x="316" y="230" fill="#6c757d" data-original="#000000"/></g></g><g xmlns="http://www.w3.org/2000/svg"><g><rect width="40" height="40" x="396" y="230" fill="#6c757d" data-original="#000000"/></g></g><g xmlns="http://www.w3.org/2000/svg"><g><rect width="40" height="40" x="76" y="310" fill="#6c757d" data-original="#000000"/></g></g><g xmlns="http://www.w3.org/2000/svg"><g><rect width="40" height="40" x="156" y="310" fill="#6c757d" data-original="#000000"/></g></g><g xmlns="http://www.w3.org/2000/svg"><g><rect width="40" height="40" x="236" y="310" fill="#6c757d" data-original="#000000"/></g></g><g xmlns="http://www.w3.org/2000/svg"><g><rect width="40" height="40" x="316" y="310" fill="#6c757d" data-original="#000000"/></g></g><g xmlns="http://www.w3.org/2000/svg"><g><rect width="40" height="40" x="76" y="390" fill="#6c757d" data-original="#000000"/></g></g><g xmlns="http://www.w3.org/2000/svg"><g><rect width="40" height="40" x="156" y="390" fill="#6c757d" data-original="#000000"/></g></g><g xmlns="http://www.w3.org/2000/svg"><g><rect width="40" height="40" x="236" y="390" fill="#6c757d" data-original="#000000"/></g></g><g xmlns="http://www.w3.org/2000/svg"><g><rect width="40" height="40" x="316" y="390" fill="#6c757d" data-original="#000000"/></g></g><g xmlns="http://www.w3.org/2000/svg"><g><rect width="40" height="40" x="396" y="310" fill="#6c757d" data-original="#000000"/></g></g></g></svg>