<?xml version="1.0"?>
<svg xmlns="http://www.w3.org/2000/svg" xmlns:xlink="http://www.w3.org/1999/xlink" xmlns:svgjs="http://svgjs.com/svgjs" version="1.1" width="512" height="512" x="0" y="0" viewBox="0 0 512 512" style="enable-background:new 0 0 512 512" xml:space="preserve" class=""><g>
<g xmlns="http://www.w3.org/2000/svg">
	<g>
		<path d="M326.786,160.113c-18.952,0-34.37,15.418-34.37,34.37c0,15.901,22.947,57.577,27.547,65.769l6.824,12.152l6.824-12.152    c4.6-8.194,27.546-49.868,27.546-65.769C361.156,175.531,345.738,160.113,326.786,160.113z M326.786,239.976    c-10.033-19.234-18.719-39.036-18.719-45.493c0-10.322,8.397-18.719,18.719-18.719c10.322,0,18.719,8.398,18.719,18.719    C345.505,200.935,336.819,220.739,326.786,239.976z" fill="#6c757d" data-original="#000000" style="" class=""/>
	</g>
</g>
<g xmlns="http://www.w3.org/2000/svg">
	<g>
		<path d="M398.839,328.233c-18.952,0-34.372,15.418-34.372,34.37c0,15.901,22.947,57.576,27.547,65.768l6.824,12.152l6.824-12.152    c4.6-8.194,27.547-49.867,27.547-65.768C433.209,343.651,417.791,328.233,398.839,328.233z M398.837,408.094    c-10.033-19.237-18.719-39.04-18.719-45.491c0-10.321,8.397-18.719,18.719-18.719c10.322,0,18.719,8.398,18.719,18.719    C417.556,369.054,408.869,388.857,398.837,408.094z" fill="#6c757d" data-original="#000000" style="" class=""/>
	</g>
</g>
<g xmlns="http://www.w3.org/2000/svg">
	<g>
		<path d="M118.639,0C99.687,0,84.268,15.418,84.268,34.37c0,15.901,22.947,57.577,27.547,65.769l6.824,12.153l6.824-12.152    c4.6-8.194,27.547-49.868,27.547-65.769C153.009,15.418,137.591,0,118.639,0z M118.638,79.863    C108.605,60.63,99.919,40.827,99.919,34.37c0-10.321,8.397-18.719,18.72-18.719c10.322,0,18.719,8.398,18.719,18.719    C137.358,40.822,128.671,60.626,118.638,79.863z" fill="#6c757d" data-original="#000000" style="" class=""/>
	</g>
</g>
<g xmlns="http://www.w3.org/2000/svg">
	<g>
		<path d="M155.719,214.467c-18.952,0-34.37,15.418-34.37,34.37c0,15.901,22.947,57.577,27.547,65.769l6.824,12.152l6.824-12.152    c4.598-8.193,27.545-49.868,27.545-65.769C190.089,229.885,174.671,214.467,155.719,214.467z M155.718,294.33    c-10.033-19.234-18.719-39.036-18.719-45.493c0-10.322,8.397-18.719,18.719-18.719s18.719,8.398,18.719,18.719    C174.438,255.289,165.751,275.092,155.718,294.33z" fill="#6c757d" data-original="#000000" style="" class=""/>
	</g>
</g>
<g xmlns="http://www.w3.org/2000/svg">
	<g>
		<rect x="111.933" y="121.856" width="16.694" height="15.651" fill="#6c757d" data-original="#000000" style="" class=""/>
	</g>
</g>
<g xmlns="http://www.w3.org/2000/svg">
	<g>
		<rect x="320.609" y="280.45" width="15.651" height="15.651" fill="#6c757d" data-original="#000000" style="" class=""/>
	</g>
</g>
<g xmlns="http://www.w3.org/2000/svg">
	<g>
		<polygon points="297.519,63.838 209.378,71.85 166.302,46.004 145.969,66.335 157.036,77.403 168.728,65.711 205.707,87.898     293.691,79.9 348.048,113.873 321.517,147.036 333.738,156.814 371.253,109.92   " fill="#6c757d" data-original="#000000" style="" class=""/>
	</g>
</g>
<g xmlns="http://www.w3.org/2000/svg">
	<g>
		<polygon points="103.982,177.271 117.986,156.266 104.964,147.584 86.945,174.613 103.95,234.131 118.999,229.832   " fill="#6c757d" data-original="#000000" style="" class=""/>
	</g>
</g>
<g xmlns="http://www.w3.org/2000/svg">
	<g>
		<path d="M436.721,75.701C388.448,27.428,324.267,0.844,255.999,0.844c-34.52,0-68.012,6.766-99.544,20.112l6.101,14.413    c29.59-12.525,61.029-18.876,93.443-18.876c64.086,0,124.337,24.957,169.655,70.274c16.234,16.234,29.839,34.392,40.635,53.948    l-26.73,40.983v32.796l-17.702,45.247l47.676,29.056h24.224c-6.947,51.812-30.51,99.687-68.103,137.279    c-45.316,45.317-105.567,70.274-169.655,70.274c-0.586,0-1.171-0.018-1.756-0.022l-6.39-45.419l10.116-10.118l32.015,8.006    l63.478-63.497l-28.977-48.233l-41.17-8.222l-23.371-23.25l-29.062-14.419v-22.324l59.957-29.863l-6.978-14.01l-68.63,34.183    v41.721l35.479,17.603l24.912,24.784l39.011,7.79l19.118,31.822l-48.569,48.583l-32.014-8.006l-21.899,21.905l7.083,50.35    c-14.397-1.039-28.541-3.35-42.304-6.875l-44.381-66.573l7.583-53.08l-15.494-2.213l-8.428,59l36.945,55.417    c-31.897-11.852-61.147-30.532-85.927-55.313C41.029,380.761,16.072,320.51,16.072,256.422    c0-64.792,25.429-125.511,71.604-170.975L76.695,74.294c-49.186,48.43-76.274,113.11-76.274,182.128    c0,68.268,26.584,132.449,74.857,180.721C123.551,485.416,187.732,512,256,512s132.449-26.584,180.722-74.857    c48.272-48.272,74.857-112.452,74.857-180.721S484.993,123.972,436.721,75.701z M473.927,273.146l-32.709-19.934l13.992-35.765    v-31.25l18.858-30.098c14.308,31.058,21.86,65.107,21.86,100.323c0,5.607-0.202,11.184-0.581,16.724H473.927z" fill="#6c757d" data-original="#000000" style="" class=""/>
	</g>
</g>
<g xmlns="http://www.w3.org/2000/svg">
	<g>
		<path d="M349.187,251.121l-11.06,11.073l21.091,21.066v14.963c-16.621,5.014-38.641,11.578-46.615,13.76    c-3.609-3.949-10.593-14.417-16.432-24.176l5.024-14.661h11.07v-15.651h-22.251l-10.977,32.03l1.799,3.091    c0.198,0.34,4.92,8.441,10.32,16.575l21.608,18.872c4.909-0.929,47.966-13.941,56.547-16.541l5.557-1.683v-33.067L349.187,251.121    z" fill="#6c757d" data-original="#000000" style="" class=""/>
	</g>
</g>
<g xmlns="http://www.w3.org/2000/svg">
	<g>
		<rect x="144.278" y="336.793" width="15.651" height="15.651" fill="#6c757d" data-original="#000000" style="" class=""/>
	</g>
</g>
<g xmlns="http://www.w3.org/2000/svg">
</g>
<g xmlns="http://www.w3.org/2000/svg">
</g>
<g xmlns="http://www.w3.org/2000/svg">
</g>
<g xmlns="http://www.w3.org/2000/svg">
</g>
<g xmlns="http://www.w3.org/2000/svg">
</g>
<g xmlns="http://www.w3.org/2000/svg">
</g>
<g xmlns="http://www.w3.org/2000/svg">
</g>
<g xmlns="http://www.w3.org/2000/svg">
</g>
<g xmlns="http://www.w3.org/2000/svg">
</g>
<g xmlns="http://www.w3.org/2000/svg">
</g>
<g xmlns="http://www.w3.org/2000/svg">
</g>
<g xmlns="http://www.w3.org/2000/svg">
</g>
<g xmlns="http://www.w3.org/2000/svg">
</g>
<g xmlns="http://www.w3.org/2000/svg">
</g>
<g xmlns="http://www.w3.org/2000/svg">
</g>
</g></svg>
