<?xml version="1.0"?>
<svg xmlns="http://www.w3.org/2000/svg" xmlns:xlink="http://www.w3.org/1999/xlink" xmlns:svgjs="http://svgjs.com/svgjs" version="1.1" width="512" height="512" x="0" y="0" viewBox="0 0 512.035 512.035" style="enable-background:new 0 0 512 512" xml:space="preserve" class=""><g><path xmlns="http://www.w3.org/2000/svg" d="m445.399 473.116 64.859-119.966c2.44-4.52 2.367-10.177-.213-14.647l-173.605-300c-2.748-4.74-7.837-7.487-12.982-7.487h-134.878c-5.276 0-10.273 2.818-12.976 7.477-.002.004-.005.007-.007.01s-.008.013-.01.016-.003.007-.005.01l-173.59 299.974c-2.632 4.561-2.607 10.212-.213 14.647l64.859 119.966c2.62 4.863 7.732 7.9 13.213 7.9 0 0 352.288.003 352.321.003 5.43 0 10.553-2.951 13.227-7.903zm-339.567-22.1 51.962-90h314.107l-48.658 90zm82.739-375.037 49.598 85.823-157.888 273.469-48.12-89.007zm66.923 115.816 80.403 139.221h-160.783zm59.313-130.779 156.245 270h-100.512l-102.033-176.675c0-.001-.001-.002-.001-.002l-53.933-93.323z" fill="#6c757d" data-original="#000000" style="" class=""/></g></svg>
